<svg width="93" height="43" fill="none" xmlns="http://www.w3.org/2000/svg"><path d="M45 13h47.67v-1H45v1Z" fill="#333"/><path d="M74.798 1.195 92.559 13 93 11.805 75.238 0l-.44 1.195Z" fill="#333"/><path d="M48 2H.33v1H48V2Z" fill="#BDBDBD"/><path d="M18.202 13.805.441 2 0 3.195 17.762 15l.44-1.195ZM48.916 30.354l-3.135 9.46H45l3.135-9.46h.781Z" fill="#BDBDBD"/><path d="M31.296 35.96c0 .928-.299 1.685-.896 2.272-.587.576-1.328.864-2.224.864-.907 0-1.653-.288-2.24-.864-.587-.576-.88-1.333-.88-2.272v-5.312c0-.939.293-1.696.88-2.272.587-.576 1.333-.864 2.24-.864.896 0 1.637.293 2.224.88.597.576.896 1.328.896 2.256v5.312Zm-1.152-.064v-5.184c0-.64-.176-1.163-.528-1.568-.341-.405-.821-.608-1.44-.608s-1.104.203-1.456.608c-.341.405-.512.928-.512 1.568v5.184c0 .64.17 1.163.512 1.568.352.405.837.608 1.456.608s1.099-.203 1.44-.608c.352-.405.528-.928.528-1.568ZM37.639 39h-1.152V28.888L34.36 30.76v-1.312l2.128-1.84h1.152V39Z" fill="#333"/><path d="M58.016 36.91c0 .638-.205 1.159-.616 1.562-.403.396-.913.594-1.529.594-.623 0-1.137-.198-1.54-.594-.403-.396-.605-.917-.605-1.562v-3.652c0-.646.202-1.166.605-1.562.403-.396.917-.594 1.54-.594.616 0 1.126.201 1.529.605.41.396.616.913.616 1.55v3.653Zm-.792-.044v-3.564c0-.44-.121-.8-.363-1.078-.235-.279-.565-.418-.99-.418-.425 0-.759.14-1.001.418-.235.279-.352.638-.352 1.078v3.564c0 .44.117.8.352 1.078.242.278.576.418 1.001.418.425 0 .755-.14.99-.418.242-.279.363-.638.363-1.078ZM63.818 39h-4.323v-.704l3.091-3.927c.293-.382.44-.767.44-1.155 0-.425-.12-.767-.363-1.023-.242-.257-.576-.385-1-.385-.397 0-.723.117-.98.352-.257.234-.385.59-.385 1.067h-.792c0-.623.198-1.133.594-1.53.396-.395.917-.593 1.562-.593s1.166.194 1.562.583c.396.381.594.89.594 1.529 0 .3-.048.568-.143.803a3.297 3.297 0 0 1-.484.78l-2.739 3.499h3.366V39Z" fill="#BDBDBD"/></svg>