<svg width="54" height="18" fill="none" xmlns="http://www.w3.org/2000/svg"><path d="M1.092 4.004V14h6.944v-1.12H2.422V9.422h5.194v-1.12H2.422V5.124h5.572v-1.12H1.092Zm8.545 0V14h1.26V5.978h.028L16.147 14h1.456V4.004h-1.26v8.106h-.028L11.05 4.004H9.637Z" fill="#E0E0E0"/><path d="M40.072 10.388V4.004h-1.33v6.384c0 .896-.224 1.577-.672 2.044-.439.457-1.083.686-1.932.686-.896 0-1.582-.229-2.058-.686-.476-.467-.714-1.148-.714-2.044V4.004h-1.33v6.384c0 1.335.36 2.31 1.078 2.926.728.607 1.736.91 3.024.91 1.26 0 2.23-.317 2.912-.952.681-.644 1.022-1.605 1.022-2.884Zm3.845-.518 1.694-4.662h.029l1.666 4.662h-3.389Zm.994-5.866L41.02 14h1.358l1.12-3.01h4.228L48.819 14h1.47l-3.906-9.996h-1.47ZM25.892 3.766l-4.13 10.458h1.008l4.144-10.458h-1.022Z" fill="#333"/></svg>