<svg width="50" height="18" fill="none" xmlns="http://www.w3.org/2000/svg"><path d="M1.092 4.004V14h6.944v-1.12H2.422V9.422h5.194v-1.12H2.422V5.124h5.572v-1.12H1.092Zm8.545 0V14h1.26V5.978h.028L16.147 14h1.456V4.004h-1.26v8.106h-.028L11.05 4.004H9.637Z" fill="#333"/><path d="M31.91 4.004v6.398c0 .513.07 1.003.21 1.47.15.457.378.859.686 1.204.317.345.719.62 1.204.826.495.196 1.087.294 1.778.294.7 0 1.293-.098 1.778-.294.495-.205.896-.48 1.204-.826.317-.345.546-.747.686-1.204.15-.467.224-.957.224-1.47V4.004h-.952v6.188c0 .579-.065 1.073-.196 1.484-.13.401-.322.733-.574.994-.252.252-.56.439-.924.56-.364.112-.78.168-1.246.168-.457 0-.868-.056-1.232-.168a2.322 2.322 0 0 1-.924-.56 2.538 2.538 0 0 1-.574-.994c-.13-.41-.196-.905-.196-1.484V4.004h-.952Zm11.096 6.076 2.002-5.124 1.932 5.124h-3.934Zm1.512-6.076L40.5 14h1.008l1.204-3.108h4.55L48.48 14h1.022l-3.92-9.996h-1.064Z" fill="#BDBDBD"/><path d="m25.892 3.766-4.13 10.458h1.008l4.144-10.458h-1.022Z" fill="#333"/></svg>